<svg width="16" height="16" viewBox="0 0 16 16" fill="none" xmlns="http://www.w3.org/2000/svg">
<path fill-rule="evenodd" clip-rule="evenodd" d="M1.99265 3.24901C2.20353 2.89916 3.36614 1.62918 4.19461 1.66752C4.44247 1.68874 4.66157 1.83799 4.83959 2.01189H4.84028C5.24836 2.41171 6.41918 3.92063 6.48491 4.2383C6.64718 5.01741 5.71805 5.46652 6.0022 6.25179C6.72661 8.0243 7.9748 9.27237 9.74815 9.99603C10.5328 10.2808 10.982 9.35248 11.7611 9.51405C12.0788 9.58046 13.5886 10.7505 13.9878 11.1592V11.1592C14.161 11.3365 14.3116 11.5563 14.3322 11.8041C14.363 12.677 13.0141 13.8553 12.7512 14.0059C12.1309 14.4502 11.3216 14.442 10.3349 13.9833C7.58179 12.8379 3.18196 8.52134 2.01524 5.66438C1.56882 4.68331 1.5387 3.8686 1.99265 3.24901Z" stroke="white" stroke-linecap="round" stroke-linejoin="round"/>
<path d="M9.70898 1.83334C12.177 2.10734 14.1257 4.054 14.403 6.52134" stroke="white" stroke-linecap="round" stroke-linejoin="round"/>
<path d="M9.70898 4.19534C10.889 4.42534 11.811 5.34734 12.041 6.52733" stroke="white" stroke-linecap="round" stroke-linejoin="round"/>
</svg>
