<svg width="76" height="89" viewBox="0 0 76 89" fill="none" xmlns="http://www.w3.org/2000/svg">
<path d="M52.9998 58.1078C54.6272 64.9616 50.0135 68.4052 46.2386 68.7379C43.4369 68.9874 41.0713 68.0226 39.2929 65.8267C37.5314 63.6641 37.1958 61.1854 37.8837 58.4239H29.428C30.1159 61.5014 29.6629 64.2796 27.3645 66.5254C25.7874 68.0725 23.8413 68.8377 21.5932 68.7545C18.9592 68.6713 16.8788 67.5069 15.3353 65.4274C13.7751 63.3313 13.8086 60.9358 14.1777 58.4239C13.2047 58.2409 12.2819 58.3573 11.376 58.3241C9.26205 58.2575 7.98699 56.1614 8.99361 54.3648C9.49692 53.4831 10.2687 53.0506 11.3424 53.0506C18.2713 53.0672 25.217 53.0506 32.1459 53.0506H50.1813C51.1879 53.0506 52.0603 52.7844 52.6978 51.9693C53.2515 51.254 53.5199 50.4721 53.1508 49.5738C52.7314 48.559 51.9932 47.9934 50.8859 47.8603C47.4298 47.4112 43.9737 46.9953 40.5345 46.4629C38.1186 46.097 35.6691 45.8641 33.2364 45.5313C30.8373 45.2153 28.4382 44.8493 26.0391 44.5332C23.5225 44.2005 21.006 43.9011 18.4894 43.5684C15.9225 43.2356 13.3556 42.9029 10.7888 42.5203C9.7318 42.354 9.06072 41.6386 8.75873 40.6405C6.99714 34.868 5.26911 29.0622 3.5243 23.2564C2.66867 20.3951 1.76271 17.5504 0.856747 14.7057C0.353435 13.1586 1.41039 11.4285 3.03776 11.2788C3.5914 11.2289 4.16182 11.2289 4.71547 11.2289C22.4488 11.2289 40.1654 11.2123 57.8987 11.2456C58.7208 11.2456 59.1402 11.0293 59.4422 10.2474C61.3044 5.30667 64.8947 2.27901 70.0285 0.998076C70.9345 0.765179 71.8404 0.698637 72.7632 0.698637C74.3234 0.682001 75.6824 1.81322 75.7998 3.22724C75.9005 4.59135 74.6757 5.92219 73.0651 6.03864C71.8236 6.12181 70.6325 6.2549 69.4749 6.75396C66.7066 7.96836 65.0289 10.0811 64.123 12.8925C62.764 17.0846 61.3883 21.2601 60.0126 25.4356C58.5194 30.0104 57.0095 34.5852 55.5163 39.1599C55.164 40.2412 54.8117 41.3226 54.4258 42.3872C54.2077 42.9861 54.3084 43.3854 54.8956 43.768C57.6638 45.5813 58.9221 48.1764 58.5362 51.437C58.1671 54.4313 56.4726 56.4941 53.7044 57.7252C53.4696 57.8416 53.2347 57.9747 52.9998 58.1078ZM46.4064 16.5024C44.6784 16.5024 43.0175 16.519 41.3397 16.4857C40.6687 16.4691 40.4338 16.6854 40.3835 17.3841C40.2996 19.1474 40.115 20.9108 39.9473 22.6742C39.7292 25.1196 39.4439 27.565 39.2594 30.027C39.0413 32.9549 38.7729 35.8661 38.5212 38.794C38.3199 40.9732 38.1689 41.0065 40.3331 41.1562C41.0378 41.2061 41.2726 41.0065 41.4069 40.3743C41.9773 37.6794 42.598 34.9844 43.1852 32.2728C44.0912 28.1472 45.0139 24.0216 45.8528 19.8794C46.0877 18.8313 46.4567 17.7999 46.4064 16.5024ZM34.998 16.6687C34.696 16.4691 34.3605 16.5024 34.025 16.5024C32.817 16.5024 31.6258 16.5523 30.4179 16.4857C29.579 16.4358 29.2771 16.702 29.3274 17.567C29.5455 20.7112 29.4784 23.8719 29.6965 27.0327C29.9649 30.6758 29.8643 34.3356 30.1495 37.9955C30.3005 39.8753 30.2501 39.842 32.0788 40.0749C32.8506 40.1747 33.1022 39.8753 33.1861 39.1766C33.4545 36.8143 33.6223 34.4355 33.8069 32.0732C34.0921 28.3968 34.5115 24.7536 34.7128 21.0771C34.8135 19.5966 35.2329 18.1493 34.998 16.6687ZM54.6272 16.519C54.6272 16.5024 54.6272 16.5024 54.6272 16.519C54.2413 16.5024 53.8386 16.5024 53.4528 16.5024C51.9764 16.5024 51.9932 16.5356 51.6912 17.9663C50.8859 21.8923 50.047 25.8016 49.1914 29.7276C48.3693 33.5371 47.5137 37.33 46.6749 41.1396C46.5742 41.6054 46.6581 41.9547 47.2285 42.0379C47.5305 42.0712 47.8157 42.1876 48.1345 42.2375C48.6042 42.3041 48.923 42.2042 49.074 41.6553C49.2921 40.8568 49.5941 40.0749 49.8457 39.293C51.0872 35.5334 52.3287 31.7738 53.5534 28.0308C54.7446 24.4375 55.919 20.8442 57.1102 17.2343C57.2612 16.7852 57.1269 16.519 56.6236 16.519C55.9693 16.5024 55.2983 16.519 54.6272 16.519ZM17.9022 16.519C18.7914 21.1936 19.647 25.6685 20.5194 30.1435C21.0228 32.7386 21.5093 35.3504 22.0126 37.9456C22.0797 38.2949 22.0965 38.6941 22.583 38.7607C23.2877 38.8605 24.0091 38.977 24.6969 39.0768C24.9486 38.7274 24.8815 38.3781 24.8647 38.062C24.5124 34.3689 24.6466 30.6592 24.3614 26.9495C24.1097 23.7555 24.2607 20.5282 23.9755 17.3341C23.942 16.9848 23.9923 16.5356 23.4722 16.5356C21.6603 16.5024 19.8484 16.519 17.9022 16.519ZM16.4762 37.9955C16.3923 36.3984 15.9896 35.0676 15.738 33.7201C15.285 31.2248 14.832 28.7128 14.3623 26.2175C13.8757 23.639 13.3389 21.0771 12.9027 18.482C12.5839 16.5689 12.5839 16.5024 10.6545 16.5024H8.13798C7.836 16.5024 7.51723 16.4525 7.21525 16.7353C7.36624 17.7667 7.75211 18.7814 8.07088 19.7962C9.78213 25.4856 11.5102 31.1749 13.2214 36.8809C13.3053 37.1637 13.3892 37.4798 13.6744 37.5297C14.5468 37.7127 15.4528 37.8291 16.4762 37.9955ZM21.8113 58.3407C20.3684 58.3573 19.2612 59.4386 19.2947 60.8693C19.3283 62.616 20.4859 63.3979 21.8616 63.4811C23.2373 63.5642 24.3949 62.3166 24.4117 60.9192C24.4285 59.5052 23.2541 58.3241 21.8113 58.3407ZM48.017 60.8693C48.0002 59.4553 46.9097 58.3407 45.4837 58.3407C44.0576 58.3241 42.8329 59.5384 42.8665 60.9192C42.9 62.2667 44.1247 63.4977 45.4333 63.5143C46.8091 63.531 48.017 62.2833 48.017 60.8693ZM53.6541 85.7726C53.6541 87.0369 52.9327 88.0351 51.9093 88.3179C50.5671 88.6839 49.3256 88.2513 48.6713 87.0536C47.413 84.7745 45.7857 82.8614 43.6885 81.3143C40.4506 78.9355 36.7764 77.7543 32.7835 78.0205C26.5256 78.453 21.7609 81.4474 18.6404 86.8872C17.7177 88.5009 15.8386 88.9334 14.53 87.8687C13.557 87.0869 13.255 85.6396 13.8925 84.4751C16.5265 79.6341 20.4356 76.1906 25.5861 74.1611C28.153 73.1463 30.8541 72.5141 33.5888 72.614C42.2793 72.93 48.9398 76.7728 53.3018 84.3254C53.5702 84.8244 53.7212 85.3069 53.6541 85.7726Z" fill="#70A177"/>
</svg>
