<svg width="12" height="12" viewBox="0 0 12 12" fill="none" xmlns="http://www.w3.org/2000/svg">
<path d="M10.278 4.69674H7.3473V1.76599C7.3473 1.04596 6.74255 0.456573 6.02225 0.456573C5.30195 0.456573 4.6972 1.04596 4.6972 1.76599V4.69674H1.76645C1.04641 4.69674 0.457031 5.30149 0.457031 6.02179C0.457031 6.74209 1.04641 7.34684 1.76645 7.34684H4.6972V10.2776C4.6972 10.9976 5.30195 11.587 6.02225 11.587C6.74255 11.587 7.3473 10.9976 7.3473 10.2776V7.34684H10.278C10.9981 7.34684 11.5875 6.74209 11.5875 6.02179C11.5875 5.30149 10.9981 4.69674 10.278 4.69674Z" fill="white"/>
</svg>
