<svg width="19" height="19" viewBox="0 0 19 19" fill="none" xmlns="http://www.w3.org/2000/svg">
<g clip-path="url(#clip0_58_863)">
<path d="M11.1809 8.27967C10.8042 7.75231 10.1865 7.40576 9.49336 7.40576C8.80026 7.40576 8.1825 7.75231 7.80581 8.27967C7.56474 8.62622 7.41406 9.04811 7.41406 9.50013C7.41406 10.6453 8.34824 11.5794 9.49336 11.5794C10.6385 11.5794 11.5727 10.6453 11.5727 9.50013C11.5727 9.04811 11.422 8.62622 11.1809 8.27967Z" fill="white"/>
<path d="M12.4919 8.29468C12.6425 8.59603 12.7329 9.07818 12.7329 9.50007C12.7329 11.278 11.2865 12.7396 9.49345 12.7396C7.70042 12.7396 6.25395 11.2931 6.25395 9.50007C6.25395 9.06312 6.34436 8.59603 6.49503 8.29468H4.67188V13.1313C4.67188 13.7641 5.22937 14.3216 5.8622 14.3216H13.1247C13.7575 14.3216 14.315 13.7641 14.315 13.1313V8.29468H12.4919Z" fill="white"/>
<path d="M13.7713 4.94964H12.0234V6.9536H14.0123V5.20578V4.93457L13.7713 4.94964Z" fill="white"/>
<path d="M14.2236 0.00878906H4.7613C2.13957 0.00878906 0 2.14836 0 4.77009V14.2475C0 16.8541 2.13957 18.9937 4.7613 18.9937H14.2387C16.8604 18.9937 19 16.8541 19 14.2324V4.77009C18.9849 2.14836 16.8454 0.00878906 14.2236 0.00878906ZM15.3688 8.28079V13.1325C15.3688 14.3982 14.3894 15.3775 13.1237 15.3775H5.86122C4.59556 15.3775 3.61618 14.3982 3.61618 13.1325V8.28079V5.87001C3.61618 4.60435 4.59556 3.62497 5.86122 3.62497H13.1237C14.3894 3.62497 15.3688 4.60435 15.3688 5.87001V8.28079Z" fill="white"/>
</g>
<defs>
<clipPath id="clip0_58_863">
<rect width="19" height="19" fill="white"/>
</clipPath>
</defs>
</svg>
