<svg width="19" height="19" viewBox="0 0 19 19" fill="none" xmlns="http://www.w3.org/2000/svg">
<g clip-path="url(#clip0_58_1795)">
<path d="M18.1263 18.5268L16.7066 5.30012C16.683 5.08717 16.4937 4.92154 16.2807 4.92154H13.6543V4.11706C13.6543 1.84558 11.8088 0 9.53727 0C7.26579 0 5.42021 1.84558 5.42021 4.11706V4.92154H2.72283C2.50988 4.92154 2.32059 5.08717 2.29692 5.30012L0.877249 18.5268C0.853587 18.6451 0.90091 18.7634 0.971894 18.858C1.04288 18.9527 1.16118 19 1.27949 19H17.7241C17.8424 19 17.9607 18.9527 18.0317 18.858C18.1027 18.7634 18.15 18.6451 18.1263 18.5268ZM13.2284 7.31133C13.4414 7.31133 13.607 7.47696 13.607 7.68991C13.607 7.90286 13.4414 8.06849 13.2284 8.06849C13.0155 8.06849 12.8499 7.90286 12.8499 7.68991C12.8499 7.47696 13.0155 7.31133 13.2284 7.31133ZM6.27202 4.11706C6.27202 2.3188 7.73902 0.851806 9.53727 0.851806C11.3355 0.851806 12.8025 2.3188 12.8025 4.11706V4.92154H6.27202V4.11706ZM5.84612 7.31133C6.05907 7.31133 6.2247 7.47696 6.2247 7.68991C6.2247 7.90286 6.05907 8.06849 5.84612 8.06849C5.63316 8.06849 5.46754 7.90286 5.46754 7.68991C5.46754 7.47696 5.63316 7.31133 5.84612 7.31133ZM1.77638 18.1245L3.10141 5.74969H5.42021V6.53051C4.94699 6.69614 4.61573 7.1457 4.61573 7.66625C4.61573 8.32877 5.15994 8.87298 5.82245 8.87298C6.48497 8.87298 7.02918 8.32877 7.02918 7.66625C7.02918 7.1457 6.69792 6.69614 6.2247 6.53051V5.74969H12.7552V6.53051C12.282 6.69614 11.9507 7.1457 11.9507 7.66625C11.9507 8.32877 12.4949 8.87298 13.1574 8.87298C13.82 8.87298 14.3642 8.32877 14.3642 7.66625C14.3642 7.1457 14.0329 6.69614 13.5597 6.53051V5.74969H15.9731L17.2982 18.1245H1.77638Z" fill="white"/>
</g>
<defs>
<clipPath id="clip0_58_1795">
<rect width="19" height="19" fill="white"/>
</clipPath>
</defs>
</svg>
